<svg width="1440" height="900" viewBox="0 0 1440 900" fill="none" xmlns="http://www.w3.org/2000/svg">
<g clip-path="url(#clip0)">
<path d="M1244.4 827.441C1223.16 797.221 1168.85 798.983 1150.62 830.471C1143.68 842.437 1159.28 815.5 1150.62 830.471C1132.82 861.198 1084.58 870.654 1051.52 849.878C1021.51 831.041 1012.92 825.641 987.17 809.466C945.231 783.125 883.844 798.223 866.922 839.04C861.073 853.148 873.831 822.371 866.922 839.04C854.569 868.829 806.127 875.078 783.044 849.865C765.795 831.016 768.477 833.957 751.181 815.056C725.369 786.865 672.528 789.185 650.6 819.48C640.338 833.652 640.431 833.526 626.347 852.996C615.243 868.334 587.357 866.724 579.013 850.271C569.436 831.358 572.68 837.759 566.021 824.614C550.035 793.063 498.691 786.37 471.366 812.28C459.919 823.144 483.313 800.961 471.366 812.28C441.515 840.586 387.442 840.092 358.386 811.241C340.232 793.203 357.326 810.189 343.133 796.093C306.934 760.144 237.53 765.252 209.846 805.892C201.58 818.035 205.386 812.445 189.836 835.288C180.307 849.282 155.758 849.764 145.402 836.149C133.143 820.051 133.502 820.52 124.737 808.997C105.444 783.645 60.6202 782.428 39.3 806.678C24.577 823.41 19.4769 829.216 3.3035 847.596C-11.3415 864.252 -43.3296 859.131 -49.1003 839.192C-53.9352 822.485 -49.6462 837.278 -53.4829 824.006C-60.6416 799.287 -101.239 794.293 -117.085 816.185C-127.815 831.016 -121.935 822.878 -134.085 839.686C-150.539 862.414 -190.965 862.414 -207.419 839.686C-219.584 822.878 -208.027 838.85 -217.339 825.971C-239.579 795.244 -294.665 796.245 -315.19 827.758C-323.347 840.269 -305.801 813.332 -315.19 827.758C-331.348 852.552 -375.767 850.727 -388.774 824.741C-395.683 810.924 -385.156 831.941 -392.47 817.351C-402.109 798.07 -436.483 800.175 -442.472 820.406C-446.621 834.388 -441.739 817.883 -446.34 833.437C-451.939 852.324 -483.678 854.961 -493.847 837.379C-503.314 821.04 -494.424 836.378 -502.238 822.89C-517.163 797.12 -562.642 798.032 -575.977 824.373C-582.668 837.557 -573.685 819.835 -581.81 835.871C-592.775 857.534 -629.831 858.979 -643.307 838.279C-654.084 821.762 -652.446 824.259 -663.208 807.742C-675.747 788.5 -710.621 791.162 -718.528 811.964C-725.952 831.485 -724.876 828.645 -731.816 846.899C-740.519 869.805 -779.042 872.568 -792.549 851.247C-804.651 832.131 -798.272 842.209 -808.94 825.375C-825.566 799.11 -872.823 801.823 -884.754 829.735C-897.824 860.323 -1081.72 894.523 -1134 1016.85C-978.239 1016.85 -41.8636 1020.69 1675.11 1028.37C1390.41 897.895 1246.85 830.927 1244.4 827.441Z" fill="white" fill-opacity="0.05"/>
</g>
<defs>
<clipPath id="clip0">
<rect width="1440" height="900" fill="white"/>
</clipPath>
</defs>
</svg>
