<svg width="500" height="500" viewBox="0 0 500 500" fill="none" xmlns="http://www.w3.org/2000/svg">
<path d="M128.092 185.421C138.033 187.751 145.722 192.566 151.159 199.867C156.751 207.012 159.547 215.323 159.547 224.798C159.547 239.244 154.732 250.428 145.101 258.35C135.626 266.117 121.956 270 104.093 270H17.65V105.036H101.763C118.539 105.036 131.742 108.686 141.373 115.987C151.004 123.288 155.819 133.928 155.819 147.908C155.819 157.539 153.256 165.694 148.13 172.373C143.159 178.897 136.48 183.246 128.092 185.421ZM69.376 169.344H89.414C94.074 169.344 97.4913 168.412 99.666 166.548C101.996 164.684 103.161 161.81 103.161 157.927C103.161 153.888 101.996 150.937 99.666 149.073C97.4913 147.054 94.074 146.044 89.414 146.044H69.376V169.344ZM92.909 228.526C97.569 228.526 100.986 227.672 103.161 225.963C105.491 224.099 106.656 221.148 106.656 217.109C106.656 209.187 102.074 205.226 92.909 205.226H69.376V228.526H92.909ZM257.312 271.631C241.779 271.631 227.488 267.981 214.44 260.68C201.548 253.379 191.296 243.283 183.684 230.39C176.073 217.497 172.267 202.974 172.267 186.819C172.267 170.664 176.073 156.141 183.684 143.248C191.296 130.355 201.548 120.336 214.44 113.191C227.488 105.89 241.779 102.24 257.312 102.24C272.846 102.24 287.059 105.89 299.951 113.191C312.844 120.336 323.018 130.355 330.474 143.248C338.086 156.141 341.891 170.664 341.891 186.819C341.891 202.974 338.086 217.497 330.474 230.39C323.018 243.283 312.766 253.379 299.718 260.68C286.826 267.981 272.69 271.631 257.312 271.631ZM257.312 223.4C267.564 223.4 275.486 220.138 281.078 213.614C286.67 206.935 289.466 198.003 289.466 186.819C289.466 175.48 286.67 166.548 281.078 160.024C275.486 153.345 267.564 150.005 257.312 150.005C246.905 150.005 238.905 153.345 233.313 160.024C227.721 166.548 224.925 175.48 224.925 186.819C224.925 198.003 227.721 206.935 233.313 213.614C238.905 220.138 246.905 223.4 257.312 223.4ZM490.099 105.036V146.044H446.295V270H394.569V146.044H351.231V105.036H490.099Z" fill="white"/>
<path d="M28.6 378.792H64.744V387H18.52V286.344H28.6V378.792ZM124.345 388.008C115.033 388.008 106.585 385.848 99.0014 381.528C91.4174 377.112 85.4174 371.016 81.0014 363.24C76.6814 355.368 74.5214 346.488 74.5214 336.6C74.5214 326.712 76.6814 317.88 81.0014 310.104C85.4174 302.232 91.4174 296.136 99.0014 291.816C106.585 287.4 115.033 285.192 124.345 285.192C133.753 285.192 142.249 287.4 149.833 291.816C157.417 296.136 163.369 302.232 167.689 310.104C172.009 317.88 174.169 326.712 174.169 336.6C174.169 346.488 172.009 355.368 167.689 363.24C163.369 371.016 157.417 377.112 149.833 381.528C142.249 385.848 133.753 388.008 124.345 388.008ZM124.345 379.224C131.833 379.224 138.553 377.496 144.505 374.04C150.457 370.584 155.161 365.64 158.617 359.208C162.073 352.68 163.801 345.144 163.801 336.6C163.801 328.056 162.073 320.568 158.617 314.136C155.161 307.704 150.457 302.76 144.505 299.304C138.553 295.848 131.833 294.12 124.345 294.12C116.857 294.12 110.137 295.848 104.185 299.304C98.2334 302.76 93.5294 307.704 90.0734 314.136C86.6174 320.568 84.8894 328.056 84.8894 336.6C84.8894 345.144 86.6174 352.68 90.0734 359.208C93.5294 365.64 98.2334 370.584 104.185 374.04C110.137 377.496 116.857 379.224 124.345 379.224ZM271.814 315.72C268.934 309.096 264.518 303.912 258.566 300.168C252.71 296.328 245.798 294.408 237.83 294.408C230.342 294.408 223.622 296.136 217.67 299.592C211.718 303.048 207.014 307.992 203.558 314.424C200.102 320.76 198.374 328.152 198.374 336.6C198.374 345.048 200.102 352.488 203.558 358.92C207.014 365.352 211.718 370.296 217.67 373.752C223.622 377.208 230.342 378.936 237.83 378.936C244.838 378.936 251.126 377.448 256.694 374.472C262.358 371.4 266.87 367.08 270.23 361.512C273.686 355.848 275.654 349.272 276.134 341.784H233.798V333.576H286.79V340.92C286.31 349.752 283.91 357.768 279.59 364.968C275.27 372.072 269.462 377.688 262.166 381.816C254.966 385.944 246.854 388.008 237.83 388.008C228.518 388.008 220.07 385.848 212.486 381.528C204.902 377.112 198.902 371.016 194.486 363.24C190.166 355.368 188.006 346.488 188.006 336.6C188.006 326.712 190.166 317.88 194.486 310.104C198.902 302.232 204.902 296.136 212.486 291.816C220.07 287.4 228.518 285.192 237.83 285.192C248.582 285.192 257.99 287.88 266.054 293.256C274.118 298.632 279.974 306.12 283.622 315.72H271.814ZM350.47 388.008C341.158 388.008 332.71 385.848 325.126 381.528C317.542 377.112 311.542 371.016 307.126 363.24C302.806 355.368 300.646 346.488 300.646 336.6C300.646 326.712 302.806 317.88 307.126 310.104C311.542 302.232 317.542 296.136 325.126 291.816C332.71 287.4 341.158 285.192 350.47 285.192C359.878 285.192 368.374 287.4 375.958 291.816C383.542 296.136 389.494 302.232 393.814 310.104C398.134 317.88 400.294 326.712 400.294 336.6C400.294 346.488 398.134 355.368 393.814 363.24C389.494 371.016 383.542 377.112 375.958 381.528C368.374 385.848 359.878 388.008 350.47 388.008ZM350.47 379.224C357.958 379.224 364.678 377.496 370.63 374.04C376.582 370.584 381.286 365.64 384.742 359.208C388.198 352.68 389.926 345.144 389.926 336.6C389.926 328.056 388.198 320.568 384.742 314.136C381.286 307.704 376.582 302.76 370.63 299.304C364.678 295.848 357.958 294.12 350.47 294.12C342.982 294.12 336.262 295.848 330.31 299.304C324.358 302.76 319.654 307.704 316.198 314.136C312.742 320.568 311.014 328.056 311.014 336.6C311.014 345.144 312.742 352.68 316.198 359.208C319.654 365.64 324.358 370.584 330.31 374.04C336.262 377.496 342.982 379.224 350.47 379.224Z" fill="white"/>
</svg>
